<?xml version="1.0" encoding="UTF-8" standalone="no"?>
<svg xmlns="http://www.w3.org/2000/svg" viewBox="0 0 512 512" width="512" height="512">
  <path d="M256 14.5L96 106.5v75c0 84.2 35.7 161.2 96 214.7V256c0-11 9-20 20-20h80c11 0 20 9 20 20v140.2c60.3-53.5 96-130.5 96-214.7v-75L256 14.5zM256 64l112 64v53.5c0 69.2-29.3 132.7-78 176.5V256c0-33.1-26.9-60-60-60h-80c-33.1 0-60 26.9-60 60v102c-48.7-43.8-78-107.3-78-176.5V128l112-64h132z" fill="black"/>
  <path d="M131 256h30v20h-30zM181 256h100v20H181zM131 296h30v20h-30zM181 296h180v20H181zM256 416h-80v40h160v-40h-80z" fill="black"/>
</svg>
